<svg id="Layer_1" data-name="Layer 1" xmlns="http://www.w3.org/2000/svg" viewBox="0 0 30 30"><defs><style>.cls-1{fill:#ffc200;}</style></defs><path class="cls-1" d="M26.77,24.49l-6-6A7.13,7.13,0,0,0,20.44,11V2a2,2,0,0,0-2-2H4.63a2,2,0,0,0-2,2V28a2,2,0,0,0,2,2H18.46a2,2,0,0,0,2-2V23.75L24,27.28a2,2,0,0,0,2.8,0,2,2,0,0,0,0-2.79ZM20,15a5.51,5.51,0,1,1-5.52-5.5A5.53,5.53,0,0,1,20,15ZM15.05,1.15,14.66,2c-.27.52-.43.85-.81.85H9.25c-.39,0-.56-.35-.8-.83h0l0-.06a.93.93,0,0,0-.05-.1L8,1.15ZM18.79,26H14.13a.83.83,0,0,0,0,1.65h4.66V28a.33.33,0,0,1-.33.33H4.63A.32.32,0,0,1,4.31,28v-.33H9A.83.83,0,1,0,9,26H4.31V2a.32.32,0,0,1,.32-.33H7l.41.83A2.08,2.08,0,0,0,9.25,4h4.6a2.08,2.08,0,0,0,1.83-1.48l.41-.83h2.37a.33.33,0,0,1,.33.33v7.3a7.16,7.16,0,1,0-4.31,12.89,7.2,7.2,0,0,0,3.47-.9l.84.83Zm7.16.43a.82.82,0,0,1-1.16,0l-6.22-6.21.21-.18a7.32,7.32,0,0,0,.8-.78l.17-.2L26,25.3a.83.83,0,0,1,0,1.17Z"/><path class="cls-1" d="M11.54,26a.83.83,0,0,0,0,1.65.83.83,0,1,0,0-1.65Zm0,1.15a.33.33,0,0,1,0-.65.33.33,0,1,1,0,.65Z"/></svg>