<svg id="Layer_1" data-name="Layer 1" xmlns="http://www.w3.org/2000/svg" viewBox="0 0 30 30"><defs><style>.cls-1{fill:#ffd400;}</style></defs><path class="cls-1" d="M27.67,14.19,23.43,10V2.64A2.64,2.64,0,0,0,20.79,0H8.49a8.38,8.38,0,0,0-.88,16.71V27.36A2.64,2.64,0,0,0,10.24,30h17a.88.88,0,0,0,.86-.71l1.64-8.15a7.66,7.66,0,0,0-2.07-7ZM1.87,8.38A6.62,6.62,0,1,1,8.49,15,6.63,6.63,0,0,1,1.87,8.38ZM18,28.24H10.24a.87.87,0,0,1-.87-.88V26.19h8.86a12.23,12.23,0,0,0-.28,2Zm.85-3.81H9.37V16.71A8.37,8.37,0,0,0,13.62,1.76h7.17a.87.87,0,0,1,.88.88V14a2.75,2.75,0,0,0-3.89,3.9l3.37,3.5a7.45,7.45,0,0,0-2.35,3.06ZM28,20.79l-1.49,7.45H19.71a8,8,0,0,1,1.57-4.56,4.61,4.61,0,0,1,1.58-1.3A.87.87,0,0,0,23.18,21L19,16.65a1,1,0,1,1,1.4-1.42c2.11,2.16.77.8,4.2,4.24a.88.88,0,0,0,1.25-1.25l-2.46-2.45V12.43l3,3A5.87,5.87,0,0,1,28,20.79Z"/><path class="cls-1" d="M9.44,7.52a6.1,6.1,0,0,1-1.51-.7.34.34,0,0,1,0-.27.48.48,0,0,1,.31-.38.91.91,0,0,1,.91.09.87.87,0,0,0,1.24,0,.88.88,0,0,0,0-1.24,2.46,2.46,0,0,0-1-.59V4.39a.88.88,0,0,0-1.76,0v.13a2.21,2.21,0,0,0-.74,3.69,7.51,7.51,0,0,0,2,1,.59.59,0,0,1,.44.7.85.85,0,0,1-.84.71,1.58,1.58,0,0,1-1.15-.3.88.88,0,1,0-1,1.47,3,3,0,0,0,1.24.53v.08a.88.88,0,1,0,1.76,0v-.18a2.47,2.47,0,0,0,.09-4.67Z"/></svg>