<svg id="Layer_1" data-name="Layer 1" xmlns="http://www.w3.org/2000/svg" viewBox="0 0 30 30"><defs><style>.cls-1{fill:#ffd400;}</style></defs><rect class="cls-1" x="5.21" y="27.53" width="19.15" height="2.18"/><path class="cls-1" d="M18.23,10H11.52a1.09,1.09,0,0,0,0,2.18h6.71a1.09,1.09,0,0,0,0-2.18Z"/><path class="cls-1" d="M23.31,15.09H11.52a1.09,1.09,0,0,0,0,2.18H23.31a1.09,1.09,0,0,0,0-2.18Z"/><path class="cls-1" d="M29.16.42A1.11,1.11,0,0,0,28,.6l-3,2.7L21.89.57a1.09,1.09,0,0,0-1.45,0L17.39,3.29l-3-2.72a1.09,1.09,0,0,0-1.45,0L9.85,3.3,6.8.6A1.11,1.11,0,0,0,5.63.42a1.1,1.1,0,0,0-.64,1V20.79H1.29A1.08,1.08,0,0,0,.2,21.87v2.65a5.2,5.2,0,0,0,5.19,5.19V27.53a3,3,0,0,1-3-3V23H19.43v1.56a5.19,5.19,0,1,0,10.37,0V1.42A1.1,1.1,0,0,0,29.16.42Zm-1.54,24.1a3,3,0,0,1-6,0V21.87a1.08,1.08,0,0,0-1.09-1.08H7.17v-17l2,1.74a1.08,1.08,0,0,0,1.44,0l3-2.72,3.05,2.72a1.09,1.09,0,0,0,1.45,0l3.05-2.72,3,2.72a1.1,1.1,0,0,0,1.45,0l2-1.74Z"/></svg>