<svg id="Layer_1" data-name="Layer 1" xmlns="http://www.w3.org/2000/svg" viewBox="0 0 30 30"><defs><style>.cls-1{fill:#ffd400;}</style></defs><path class="cls-1" d="M27.4,28.75,25.58,8.42a1.08,1.08,0,0,0-1.08-1H20.74V5.74a5.74,5.74,0,1,0-11.48,0v1.7H5.49a1.08,1.08,0,0,0-1.07,1L2.59,28.83a1,1,0,0,0,.28.82,1.08,1.08,0,0,0,.79.35H26.34a1.08,1.08,0,0,0,1.08-1.08C27.41,28.86,27.41,28.8,27.4,28.75Zm-16-23a3.58,3.58,0,1,1,7.16,0v1.7H11.42ZM4.84,27.85,6.48,9.59H9.26v1.93a1.08,1.08,0,0,0,2.16,0V9.59h7.16v1.93a1.08,1.08,0,0,0,2.16,0V9.59h2.78l1.64,18.26Z"/></svg>